<?xml version="1.0" encoding="UTF-8"?>
<svg width="512" height="512" viewBox="0 0 512 512" fill="none" xmlns="http://www.w3.org/2000/svg">
  <defs>
    <linearGradient id="bg" x1="96" y1="64" x2="416" y2="448" gradientUnits="userSpaceOnUse">
      <stop stop-color="#ff7bbf"/>
      <stop offset="1" stop-color="#9f7bff"/>
    </linearGradient>
    <filter id="shadow" x="72" y="88" width="368" height="340" filterUnits="userSpaceOnUse">
      <feDropShadow dx="0" dy="18" stdDeviation="18" flood-color="#111827" flood-opacity="0.16"/>
    </filter>
  </defs>
  <rect width="512" height="512" rx="128" fill="#fff1fb"/>
  <circle cx="256" cy="236" r="156" fill="url(#bg)" opacity="0.16"/>
  <g filter="url(#shadow)">
    <rect x="88" y="112" width="336" height="304" rx="92" fill="url(#bg)"/>
    <rect x="104" y="128" width="304" height="272" rx="78" fill="#fff1fb" fill-opacity="0.94"/>
  </g>
  
    <ellipse cx="208" cy="224" rx="42" ry="56" fill="#ffb0db"/>
    <ellipse cx="304" cy="224" rx="42" ry="56" fill="#b6a2ff"/>
    <ellipse cx="216" cy="292" rx="36" ry="44" fill="#ff87c2"/>
    <ellipse cx="296" cy="292" rx="36" ry="44" fill="#8ea6ff"/>
    <ellipse cx="256" cy="258" rx="22" ry="74" fill="#4b5563"/>
    <circle cx="246" cy="206" r="6" fill="#4b5563"/>
    <circle cx="266" cy="206" r="6" fill="#4b5563"/>
    <path d="M246 200C242 184 236 176 226 170" stroke="#4b5563" stroke-width="4" stroke-linecap="round"/>
    <path d="M266 200C270 184 276 176 286 170" stroke="#4b5563" stroke-width="4" stroke-linecap="round"/>
    <ellipse cx="256" cy="364" rx="86" ry="24" fill="#f1ecff" opacity="0.96"/>
  
</svg>