<?xml version="1.0" encoding="UTF-8"?>
<svg width="512" height="512" viewBox="0 0 512 512" fill="none" xmlns="http://www.w3.org/2000/svg">
  <defs>
    <linearGradient id="bg" x1="96" y1="64" x2="416" y2="448" gradientUnits="userSpaceOnUse">
      <stop stop-color="#8dc9ff"/>
      <stop offset="1" stop-color="#4569c7"/>
    </linearGradient>
    <filter id="shadow" x="72" y="88" width="368" height="340" filterUnits="userSpaceOnUse">
      <feDropShadow dx="0" dy="18" stdDeviation="18" flood-color="#111827" flood-opacity="0.16"/>
    </filter>
  </defs>
  <rect width="512" height="512" rx="128" fill="#141b2a"/>
  <circle cx="256" cy="236" r="156" fill="url(#bg)" opacity="0.16"/>
  <g filter="url(#shadow)">
    <rect x="88" y="112" width="336" height="304" rx="92" fill="url(#bg)"/>
    <rect x="104" y="128" width="304" height="272" rx="78" fill="#141b2a" fill-opacity="0.94"/>
  </g>
  
    <circle cx="256" cy="224" r="64" fill="#eef6ff"/>
    <circle cx="222" cy="234" r="10" fill="#1f2937"/>
    <circle cx="290" cy="234" r="10" fill="#1f2937"/>
    <circle cx="218" cy="230" r="3" fill="#ffffff"/>
    <circle cx="286" cy="230" r="3" fill="#ffffff"/>
    <path d="M226 176C216 156 206 146 192 138" stroke="#5a6cd6" stroke-width="5" stroke-linecap="round"/>
    <path d="M286 176C296 156 306 146 320 138" stroke="#5a6cd6" stroke-width="5" stroke-linecap="round"/>
    <circle cx="190" cy="136" r="10" fill="#86a9ff"/>
    <circle cx="322" cy="136" r="10" fill="#86a9ff"/>
    
    <ellipse cx="256" cy="272" rx="38" ry="28" fill="#f6fbff"/>
    <ellipse cx="256" cy="262" rx="10" ry="7" fill="#7586cb"/>
    <path d="M244 277C248 284 252 287 256 287C260 287 264 284 268 277" stroke="#6b4f4f" stroke-width="4" stroke-linecap="round"/>
    <ellipse cx="256" cy="346" rx="84" ry="40" fill="#eef6ff" opacity="0.96"/>
  
</svg>