<?xml version="1.0" encoding="UTF-8"?>
<svg width="512" height="512" viewBox="0 0 512 512" fill="none" xmlns="http://www.w3.org/2000/svg">
  <defs>
    <linearGradient id="bg" x1="96" y1="64" x2="416" y2="448" gradientUnits="userSpaceOnUse">
      <stop stop-color="#ffd986"/>
      <stop offset="1" stop-color="#f5b04c"/>
    </linearGradient>
    <filter id="shadow" x="72" y="88" width="368" height="340" filterUnits="userSpaceOnUse">
      <feDropShadow dx="0" dy="18" stdDeviation="18" flood-color="#111827" flood-opacity="0.16"/>
    </filter>
  </defs>
  <rect width="512" height="512" rx="128" fill="#fff9ec"/>
  <circle cx="256" cy="236" r="156" fill="url(#bg)" opacity="0.16"/>
  <g filter="url(#shadow)">
    <rect x="88" y="112" width="336" height="304" rx="92" fill="url(#bg)"/>
    <rect x="104" y="128" width="304" height="272" rx="78" fill="#fff9ec" fill-opacity="0.94"/>
  </g>
  
    <circle cx="256" cy="244" r="112" fill="#f2b24f"/>
    <circle cx="256" cy="248" r="84" fill="#fff4d8"/>
    <circle cx="194" cy="186" r="22" fill="#f7c76a"/>
    <circle cx="318" cy="186" r="22" fill="#f7c76a"/>
    
    <ellipse cx="222" cy="236" rx="10" ry="12" fill="#1f2937"/>
    <ellipse cx="290" cy="236" rx="10" ry="12" fill="#1f2937"/>
    <circle cx="218" cy="232" r="3" fill="#ffffff"/>
    <circle cx="286" cy="232" r="3" fill="#ffffff"/>
    
    <ellipse cx="256" cy="272" rx="38" ry="28" fill="#fff6e8"/>
    <ellipse cx="256" cy="262" rx="10" ry="7" fill="#b67c46"/>
    <path d="M244 277C248 284 252 287 256 287C260 287 264 284 268 277" stroke="#6b4f4f" stroke-width="4" stroke-linecap="round"/>
    <ellipse cx="256" cy="346" rx="86" ry="42" fill="#fff4d8" opacity="0.96"/>
  
</svg>