<?xml version="1.0" encoding="UTF-8"?>
<svg width="512" height="512" viewBox="0 0 512 512" fill="none" xmlns="http://www.w3.org/2000/svg">
  <defs>
    <linearGradient id="bg" x1="96" y1="64" x2="416" y2="448" gradientUnits="userSpaceOnUse">
      <stop stop-color="#e0c28a"/>
      <stop offset="1" stop-color="#b98b48"/>
    </linearGradient>
    <filter id="shadow" x="72" y="88" width="368" height="340" filterUnits="userSpaceOnUse">
      <feDropShadow dx="0" dy="18" stdDeviation="18" flood-color="#111827" flood-opacity="0.16"/>
    </filter>
  </defs>
  <rect width="512" height="512" rx="128" fill="#fff8ee"/>
  <circle cx="256" cy="236" r="156" fill="url(#bg)" opacity="0.16"/>
  <g filter="url(#shadow)">
    <rect x="88" y="112" width="336" height="304" rx="92" fill="url(#bg)"/>
    <rect x="104" y="128" width="304" height="272" rx="78" fill="#fff8ee" fill-opacity="0.94"/>
  </g>
  
    <polygon points="192,188 220,154 232,204" fill="#d3a15f"/>
    <polygon points="320,188 292,154 280,204" fill="#d3a15f"/>
    
    <ellipse cx="256" cy="250" rx="94" ry="86" fill="#f7efe0"/>
    
    <ellipse cx="222" cy="236" rx="10" ry="12" fill="#1f2937"/>
    <ellipse cx="290" cy="236" rx="10" ry="12" fill="#1f2937"/>
    <circle cx="218" cy="232" r="3" fill="#ffffff"/>
    <circle cx="286" cy="232" r="3" fill="#ffffff"/>
    
    <ellipse cx="256" cy="272" rx="38" ry="28" fill="#fff6ed"/>
    <ellipse cx="256" cy="262" rx="10" ry="7" fill="#94694c"/>
    <path d="M244 277C248 284 252 287 256 287C260 287 264 284 268 277" stroke="#6b4f4f" stroke-width="4" stroke-linecap="round"/>
    <ellipse cx="256" cy="346" rx="86" ry="42" fill="#f7efe0" opacity="0.96"/>
  
    <path d="M324 286C352 276 368 252 368 228C368 206 356 188 338 176" stroke="#d3a15f" stroke-width="12" stroke-linecap="round"/>
  
</svg>