<?xml version="1.0" encoding="UTF-8"?>
<svg width="512" height="512" viewBox="0 0 512 512" fill="none" xmlns="http://www.w3.org/2000/svg">
  <defs>
    <linearGradient id="bg" x1="96" y1="64" x2="416" y2="448" gradientUnits="userSpaceOnUse">
      <stop stop-color="#86abff"/>
      <stop offset="1" stop-color="#5770ff"/>
    </linearGradient>
    <filter id="shadow" x="72" y="88" width="368" height="340" filterUnits="userSpaceOnUse">
      <feDropShadow dx="0" dy="18" stdDeviation="18" flood-color="#111827" flood-opacity="0.16"/>
    </filter>
  </defs>
  <rect width="512" height="512" rx="128" fill="#f2f6ff"/>
  <circle cx="256" cy="236" r="156" fill="url(#bg)" opacity="0.16"/>
  <g filter="url(#shadow)">
    <rect x="88" y="112" width="336" height="304" rx="92" fill="url(#bg)"/>
    <rect x="104" y="128" width="304" height="272" rx="78" fill="#f2f6ff" fill-opacity="0.94"/>
  </g>
  
    <path d="M168 272C178 206 238 178 306 192C342 200 364 226 366 256C368 296 336 324 286 326L300 350L266 334C222 334 182 316 170 290C168 286 166 280 168 272Z" fill="#86abff"/>
    <path d="M286 204C312 212 326 230 326 254C326 270 320 282 308 292C314 264 308 232 286 204Z" fill="#5b74ff"/>
    <circle cx="230" cy="244" r="9" fill="#213047"/>
    <circle cx="226" cy="240" r="3" fill="#ffffff"/>
    <path d="M220 278C230 286 244 290 258 290C270 290 282 286 292 278" stroke="#5470c2" stroke-width="5" stroke-linecap="round"/>
    <ellipse cx="256" cy="356" rx="92" ry="28" fill="#eef7ff" opacity="0.96"/>
  
</svg>