<svg width="256" height="256" viewBox="0 0 256 256" fill="none" xmlns="http://www.w3.org/2000/svg">
  <rect width="256" height="256" rx="72" fill="url(#bg)"/>
  <circle cx="72" cy="72" r="44" fill="#FFB4C0" fill-opacity="0.75"/>
  <circle cx="198" cy="70" r="38" fill="#8EDCFF" fill-opacity="0.82"/>
  <circle cx="192" cy="188" r="52" fill="#9BE6D8" fill-opacity="0.72"/>
  <path d="M83.2 159.8C83.2 123.4 102.4 99 128.6 99C147.4 99 162.8 111.4 170.6 131.4L147.2 141C143.4 130.8 136.6 125.6 127.8 125.6C115 125.6 106 137.4 106 159.2C106 181.8 115.6 193.2 129.4 193.2C139.6 193.2 146.8 187.8 150 176H126.6V154.8H174.6C174.8 157.6 175 160.2 175 162.6C175 205.2 153.4 220.4 128.6 220.4C100.2 220.4 83.2 197 83.2 159.8Z" fill="#1B2230"/>
  <defs>
    <linearGradient id="bg" x1="128" y1="0" x2="128" y2="256" gradientUnits="userSpaceOnUse">
      <stop stop-color="#FFFDFE"/>
      <stop offset="1" stop-color="#ECF6FF"/>
    </linearGradient>
  </defs>
</svg>
